<svg width="137" height="137" viewBox="0 0 137 137" fill="none" xmlns="http://www.w3.org/2000/svg">
<circle cx="131.853" cy="131.853" r="5.1474" fill="#00E9F8"/>
<circle cx="100.176" cy="131.853" r="5.1474" fill="#00E9F8"/>
<circle cx="68.5" cy="131.853" r="5.1474" fill="#00E9F8"/>
<circle cx="36.8237" cy="131.853" r="5.1474" fill="#00E9F8"/>
<circle cx="5.1474" cy="131.853" r="5.1474" fill="#00E9F8"/>
<circle cx="131.853" cy="100.176" r="5.1474" fill="#00E9F8"/>
<circle cx="100.176" cy="100.176" r="5.1474" fill="#00E9F8"/>
<circle cx="68.5" cy="100.176" r="5.1474" fill="#00E9F8"/>
<circle cx="36.8237" cy="100.176" r="5.1474" fill="#00E9F8"/>
<circle cx="5.1474" cy="100.176" r="5.1474" fill="#00E9F8"/>
<circle cx="131.853" cy="68.5" r="5.1474" fill="#00E9F8"/>
<circle cx="100.176" cy="68.5" r="5.1474" fill="#00E9F8"/>
<circle cx="68.5" cy="68.5" r="5.1474" fill="#00E9F8"/>
<circle cx="36.8237" cy="68.5" r="5.1474" fill="#00E9F8"/>
<circle cx="5.1474" cy="68.5" r="5.1474" fill="#00E9F8"/>
<circle cx="131.853" cy="36.8237" r="5.1474" fill="#00E9F8"/>
<circle cx="100.176" cy="36.8237" r="5.1474" fill="#00E9F8"/>
<circle cx="68.5" cy="36.8237" r="5.1474" fill="#00E9F8"/>
<circle cx="36.8237" cy="36.8237" r="5.1474" fill="#00E9F8"/>
<circle cx="5.1474" cy="36.8237" r="5.1474" fill="#00E9F8"/>
<circle cx="131.853" cy="5.1474" r="5.1474" fill="#00E9F8"/>
<circle cx="100.176" cy="5.1474" r="5.1474" fill="#00E9F8"/>
<circle cx="68.5" cy="5.1474" r="5.1474" fill="#00E9F8"/>
<circle cx="36.8237" cy="5.1474" r="5.1474" fill="#00E9F8"/>
<circle cx="5.1474" cy="5.1474" r="5.1474" fill="#00E9F8"/>
</svg>
