<svg width="122" height="71" viewBox="0 0 122 71" fill="none" xmlns="http://www.w3.org/2000/svg">
<g filter="url(#filter0_d_56_4)">
<path d="M12.352 45.504C12.16 45.504 11.824 45.424 11.344 45.264C10.864 45.136 10.416 44.944 10 44.688C9.584 44.432 9.344 44.144 9.28 43.824C9.088 42.576 8.992 40.992 8.992 39.072C8.992 37.856 9.024 36.528 9.088 35.088C9.152 33.648 9.248 32.192 9.376 30.72L8.128 30.624C7.808 30.592 7.472 30.384 7.12 30C6.768 29.616 6.48 29.216 6.256 28.8C6.032 28.352 5.92 28.032 5.92 27.84C5.92 27.552 6.112 27.312 6.496 27.12C6.912 26.896 7.424 26.72 8.032 26.592C8.64 26.432 9.216 26.32 9.76 26.256C10.016 23.696 10.304 21.264 10.624 18.96C10.976 16.624 11.28 14.672 11.536 13.104C11.184 13.552 10.848 13.936 10.528 14.256C10.24 14.576 10.048 14.736 9.952 14.736V14.592C10.08 14.304 10.288 13.808 10.576 13.104C10.864 12.4 11.184 11.68 11.536 10.944C11.92 10.176 12.288 9.52 12.64 8.976C12.992 8.432 13.264 8.16 13.456 8.16C13.872 8.16 14.352 8.368 14.896 8.784C15.44 9.168 15.712 9.568 15.712 9.984V10.128C14.944 11.536 14.288 13.232 13.744 15.216C13.232 17.168 12.816 19.264 12.496 21.504C12.176 23.744 11.936 26 11.776 28.272L12.544 28.464C14.592 27.92 16.576 27.136 18.496 26.112C20.448 25.088 22.304 23.936 24.064 22.656C25.824 21.376 27.072 20.176 27.808 19.056C28.576 17.904 28.96 16.832 28.96 15.84C28.96 14.72 28.56 13.68 27.76 12.72C26.96 11.76 25.872 10.912 24.496 10.176C23.152 9.408 21.648 8.752 19.984 8.208C18.32 7.664 16.608 7.232 14.848 6.912C13.12 6.592 11.472 6.384 9.904 6.288C9.712 6.288 9.328 6.288 8.752 6.288C8.176 6.256 7.552 6.24 6.88 6.24C6.208 6.208 5.632 6.16 5.152 6.096C4.672 6 4.432 5.872 4.432 5.712C4.432 5.584 4.608 5.456 4.96 5.328C6.176 4.848 7.296 4.512 8.32 4.32C9.376 4.096 10.368 3.984 11.296 3.984C11.968 3.984 12.944 4.112 14.224 4.368C15.504 4.592 16.912 4.944 18.448 5.424C20.016 5.904 21.584 6.48 23.152 7.152C24.752 7.824 26.224 8.592 27.568 9.456C28.912 10.32 29.984 11.264 30.784 12.288C31.616 13.312 32.032 14.4 32.032 15.552C32.032 16.512 31.616 17.472 30.784 18.432C29.984 19.36 28.88 20.496 27.472 21.84C26.448 22.832 25.216 23.776 23.776 24.672C22.368 25.568 20.88 26.384 19.312 27.12C17.776 27.824 16.272 28.448 14.8 28.992C17.552 29.76 20.128 30.704 22.528 31.824C24.928 32.912 27.28 34.128 29.584 35.472C29.904 35.664 30.064 35.824 30.064 35.952C30.064 36.08 29.984 36.144 29.824 36.144C29.728 36.144 29.648 36.112 29.584 36.048C28.72 35.728 27.456 35.264 25.792 34.656C24.16 34.048 22.416 33.456 20.56 32.88C20.08 32.72 19.36 32.528 18.4 32.304C17.44 32.08 16.368 31.856 15.184 31.632C14 31.376 12.816 31.168 11.632 31.008C11.6 31.584 11.584 32.176 11.584 32.784C11.584 33.36 11.584 33.92 11.584 34.464C11.584 35.52 11.6 36.56 11.632 37.584C11.696 38.576 11.76 39.504 11.824 40.368C11.984 39.888 12.128 39.376 12.256 38.832C12.384 38.288 12.464 38.016 12.496 38.016C12.56 38.016 12.592 38.272 12.592 38.784C12.592 39.2 12.576 39.744 12.544 40.416C12.544 41.088 12.528 41.776 12.496 42.48C12.496 43.184 12.496 43.808 12.496 44.352C12.496 44.608 12.496 44.832 12.496 45.024C12.496 45.248 12.512 45.392 12.544 45.456C12.544 45.488 12.48 45.504 12.352 45.504ZM37.5865 42.144C35.9545 42.144 34.5465 41.744 33.3625 40.944C32.2105 40.112 31.3145 39.04 30.6745 37.728C30.0665 36.416 29.7625 35.056 29.7625 33.648C29.7625 32.496 29.9865 31.2 30.4345 29.76C29.8265 29.76 29.5225 29.536 29.5225 29.088C29.5225 28.736 29.8585 28.432 30.5305 28.176L31.1545 27.936C31.7305 26.688 32.4345 25.536 33.2665 24.48C34.1305 23.392 35.0905 22.512 36.1465 21.84C37.2345 21.168 38.3705 20.832 39.5545 20.832C40.2265 20.832 40.8825 20.944 41.5225 21.168C42.1625 21.392 42.6905 21.664 43.1065 21.984C43.5545 22.272 43.7785 22.544 43.7785 22.8C43.7785 22.896 43.7145 22.944 43.5865 22.944C43.4585 22.944 43.3465 22.912 43.2505 22.848C42.8025 22.656 42.3545 22.528 41.9065 22.464C41.4905 22.368 41.0905 22.32 40.7065 22.32C39.4905 22.32 38.3545 22.736 37.2985 23.568C36.2425 24.4 35.3145 25.456 34.5145 26.736L47.3305 22.224C48.0985 21.968 49.0745 21.744 50.2585 21.552C51.4425 21.36 52.5465 21.264 53.5705 21.264C54.7865 21.264 55.6825 21.424 56.2585 21.744C56.8665 22.064 57.1705 22.4 57.1705 22.752C57.1705 23.072 56.9145 23.232 56.4025 23.232C56.0825 23.232 55.5705 23.136 54.8665 22.944C54.1945 22.72 53.4425 22.608 52.6105 22.608C51.8105 22.608 50.9465 22.672 50.0185 22.8C49.1225 22.896 48.3545 23.024 47.7145 23.184C47.0745 23.344 46.7545 23.488 46.7545 23.616C46.7545 23.712 46.9145 23.76 47.2345 23.76C47.9385 23.792 48.6425 23.904 49.3465 24.096C50.0825 24.288 50.7065 24.64 51.2185 25.152C51.7305 25.632 51.9865 26.352 51.9865 27.312C51.9865 28.24 51.7145 29.344 51.1705 30.624C50.6585 31.904 49.9385 33.216 49.0105 34.56C48.0825 35.872 47.0105 37.104 45.7945 38.256C44.5785 39.408 43.2665 40.352 41.8585 41.088C40.4505 41.792 39.0265 42.144 37.5865 42.144ZM35.8585 40.512C37.0105 40.512 38.1945 40.192 39.4105 39.552C40.6265 38.88 41.7945 38.032 42.9145 37.008C44.0345 35.984 45.0425 34.88 45.9385 33.696C46.8345 32.48 47.5385 31.312 48.0505 30.192C48.5945 29.072 48.8665 28.128 48.8665 27.36C48.8665 26.24 48.5305 25.456 47.8585 25.008C47.2185 24.56 46.5305 24.336 45.7945 24.336C45.1225 24.336 44.2745 24.496 43.2505 24.816C42.2585 25.104 41.1705 25.488 39.9865 25.968C38.8345 26.448 37.6825 26.944 36.5305 27.456C35.3785 27.968 34.3385 28.416 33.4105 28.8C32.9945 29.792 32.6585 30.816 32.4025 31.872C32.1465 32.896 32.0185 33.872 32.0185 34.8C32.0505 35.568 32.1625 36.4 32.3545 37.296C32.5785 38.16 32.9625 38.912 33.5065 39.552C34.0825 40.192 34.8665 40.512 35.8585 40.512ZM57.4551 44.976C57.1351 44.976 56.6871 44.72 56.1111 44.208C55.5671 43.728 55.1831 43.088 54.9591 42.288C54.8311 41.744 54.7351 41.008 54.6711 40.08C54.6071 39.152 54.5751 38.112 54.5751 36.96C54.5751 35.04 54.6071 32.976 54.6711 30.768C54.7671 28.56 54.8151 26.576 54.8151 24.816C54.8151 24.24 54.7991 23.696 54.7671 23.184C54.7671 22.672 54.7511 22.224 54.7191 21.84C54.6551 21.776 54.4631 21.728 54.1431 21.696C53.8551 21.632 53.5671 21.584 53.2791 21.552C53.0231 21.488 52.8951 21.456 52.8951 21.456C52.8951 21.392 53.1351 21.248 53.6151 21.024C54.1271 20.768 54.8471 20.64 55.7751 20.64C56.7351 20.64 57.3591 20.848 57.6471 21.264C57.9671 21.648 58.1271 21.984 58.1271 22.272C58.1271 22.336 58.1271 22.416 58.1271 22.512C58.1271 22.608 58.1111 22.688 58.0791 22.752C57.7271 24.448 57.3911 26.448 57.0711 28.752C56.7511 31.024 56.5911 33.424 56.5911 35.952C56.5911 36.56 56.5911 37.104 56.5911 37.584C56.6231 38.032 56.6391 38.432 56.6391 38.784V39.216C56.8311 37.424 57.1671 35.728 57.6471 34.128C58.1271 32.496 58.6071 30.72 59.0871 28.8C59.4711 27.136 59.7911 25.856 60.0471 24.96C60.3351 24.032 60.6231 23.392 60.9111 23.04C61.2311 22.656 61.5991 22.464 62.0151 22.464C62.5911 22.464 62.9911 22.704 63.2151 23.184C63.4391 23.664 63.5831 24.32 63.6471 25.152C63.7111 25.984 63.7751 26.944 63.8391 28.032C63.9031 29.088 64.0631 30.224 64.3191 31.44C64.7031 33.264 65.1511 34.592 65.6631 35.424C66.1751 36.256 66.6071 36.672 66.9591 36.672C67.3751 36.672 67.7911 36.416 68.2071 35.904C68.6231 35.36 69.0231 34.736 69.4071 34.032C69.7911 33.328 70.1271 32.72 70.4151 32.208C70.7351 31.664 70.9911 31.392 71.1831 31.392C71.2791 31.392 71.3271 31.472 71.3271 31.632C71.3271 31.76 71.2791 31.968 71.1831 32.256C70.3831 34.048 69.7111 35.44 69.1671 36.432C68.6231 37.392 67.8711 37.872 66.9111 37.872C66.1751 37.872 65.4391 37.552 64.7031 36.912C64.3191 36.592 63.9351 36.08 63.5511 35.376C63.1991 34.64 62.8631 33.84 62.5431 32.976C62.2231 32.112 61.9191 31.296 61.6311 30.528C61.3751 29.728 61.1511 29.072 60.9591 28.56C60.7671 28.048 60.6391 27.792 60.5751 27.792C60.5111 27.792 60.3991 27.856 60.2391 27.984C60.1111 28.112 60.0151 28.336 59.9511 28.656C59.4071 30.64 58.9591 32.608 58.6071 34.56C58.2871 36.48 58.0471 38.224 57.8871 39.792C57.7271 41.328 57.6471 42.512 57.6471 43.344C57.6471 43.76 57.6631 44.048 57.6951 44.208C57.7591 44.4 57.7911 44.544 57.7911 44.64C57.7911 44.864 57.6791 44.976 57.4551 44.976ZM80.6598 40.08C80.3078 40.08 79.9238 39.952 79.5078 39.696C79.0918 39.408 78.8038 39.104 78.6438 38.784C78.6438 38.048 78.7398 37.04 78.9318 35.76C79.1238 34.48 79.3318 33.168 79.5558 31.824C79.8118 30.448 80.0358 29.28 80.2278 28.32C79.6518 29.216 78.9958 30.192 78.2598 31.248C77.5238 32.304 76.7718 33.296 76.0038 34.224C75.2358 35.12 74.4518 35.872 73.6518 36.48C72.8838 37.056 72.1638 37.344 71.4918 37.344C70.8198 37.344 70.2918 37.12 69.9078 36.672C69.5238 36.192 69.3318 35.648 69.3318 35.04C69.3318 34.88 69.3638 34.672 69.4277 34.416C69.7158 32.944 70.2758 31.568 71.1078 30.288C71.9718 28.976 72.9478 27.824 74.0358 26.832C75.1558 25.84 76.2598 25.056 77.3478 24.48C78.4358 23.904 79.3638 23.616 80.1318 23.616C80.7078 23.616 81.2518 23.744 81.7638 24C82.3078 24.224 82.8198 24.608 83.2998 25.152C83.3958 25.248 83.4438 25.36 83.4438 25.488C83.4438 25.648 83.3478 25.808 83.1558 25.968C82.9318 26.736 82.6918 27.664 82.4358 28.752C82.2118 29.808 81.9878 30.912 81.7638 32.064C81.5718 33.184 81.4118 34.224 81.2838 35.184C81.1558 36.144 81.0918 36.88 81.0918 37.392C81.0918 37.744 81.1398 37.92 81.2358 37.92C81.4918 37.92 81.8118 37.648 82.1958 37.104C82.6118 36.56 83.0118 35.936 83.3958 35.232C83.7798 34.528 84.1158 33.904 84.4038 33.36C84.7238 32.816 84.9158 32.544 84.9798 32.544C85.0758 32.544 85.1238 32.672 85.1238 32.928C85.1238 33.472 84.9478 34.144 84.5958 34.944C84.2438 35.744 83.8118 36.544 83.2998 37.344C82.8198 38.112 82.3238 38.768 81.8118 39.312C81.3318 39.824 80.9478 40.08 80.6598 40.08ZM71.8758 35.568C72.3238 35.568 72.8838 35.312 73.5558 34.8C74.2598 34.288 74.9798 33.632 75.7158 32.832C76.4838 32.032 77.2198 31.184 77.9238 30.288C78.6598 29.392 79.2838 28.544 79.7958 27.744C80.3398 26.912 80.7238 26.24 80.9478 25.728C80.3078 25.728 79.5718 25.968 78.7398 26.448C77.9078 26.896 77.0598 27.488 76.1958 28.224C75.3318 28.928 74.5318 29.712 73.7958 30.576C73.0598 31.408 72.4678 32.224 72.0198 33.024C71.5718 33.824 71.3478 34.512 71.3478 35.088C71.3478 35.408 71.5238 35.568 71.8758 35.568ZM91.8426 44.016C91.3306 44.016 90.8986 43.696 90.5466 43.056C90.2266 42.448 89.9706 41.664 89.7786 40.704C89.6186 39.712 89.5066 38.656 89.4426 37.536C89.3786 36.384 89.3466 35.28 89.3466 34.224V34.176C88.9946 34.016 88.6586 33.872 88.3386 33.744C88.0186 33.584 87.7146 33.456 87.4266 33.36C87.2346 33.264 87.1386 33.136 87.1386 32.976C87.1386 32.688 87.3146 32.368 87.6666 32.016C88.0506 31.664 88.4506 31.488 88.8666 31.488C88.9626 31.488 89.1066 31.52 89.2986 31.584C89.2986 31.616 89.3306 31.632 89.3946 31.632C89.4586 29.04 89.6346 26.448 89.9226 23.856C90.2106 21.232 90.5306 18.8 90.8826 16.56C91.2666 14.288 91.6186 12.384 91.9386 10.848C92.2906 9.28 92.5626 8.272 92.7546 7.824C92.9786 7.28 93.1546 6.816 93.2826 6.432C93.4426 6.048 93.6826 5.856 94.0026 5.856C94.5146 5.856 95.0106 6.064 95.4906 6.48C96.0026 6.896 96.2586 7.28 96.2586 7.632V7.728C96.4506 7.472 96.7226 7.344 97.0746 7.344C97.5866 7.344 97.9866 7.6 98.2746 8.112C98.5946 8.624 98.8186 9.216 98.9466 9.888C99.1066 10.528 99.1866 11.056 99.1866 11.472C99.1866 12.72 98.9306 14.096 98.4186 15.6C97.9066 17.104 97.2506 18.64 96.4506 20.208C95.6506 21.744 94.8026 23.232 93.9066 24.672C93.0106 26.08 92.1786 27.328 91.4106 28.416C91.3466 29.088 91.2826 29.76 91.2186 30.432C91.1546 31.104 91.0906 31.776 91.0266 32.448L91.5546 32.736C92.7386 31.936 93.9546 31.008 95.2026 29.952C96.4506 28.896 97.6346 27.824 98.7546 26.736C99.9066 25.616 100.883 24.56 101.683 23.568C101.747 23.504 101.811 23.472 101.875 23.472C101.971 23.472 102.019 23.536 102.019 23.664C102.019 23.728 102.003 23.792 101.971 23.856C101.395 24.88 100.627 26 99.6666 27.216C98.7066 28.4 97.6666 29.584 96.5466 30.768C95.4586 31.92 94.3706 32.944 93.2826 33.84C94.8826 34.928 96.4186 36.112 97.8906 37.392C99.3946 38.672 100.787 39.952 102.067 41.232C102.259 41.424 102.355 41.616 102.355 41.808C102.355 42.032 102.291 42.144 102.163 42.144C102.099 42.144 102.067 42.128 102.067 42.096C101.459 41.648 100.595 41.04 99.4746 40.272C98.3546 39.472 97.1546 38.672 95.8746 37.872C95.4906 37.616 94.8826 37.232 94.0506 36.72C93.2186 36.208 92.3226 35.696 91.3626 35.184H91.2186C91.1866 35.184 91.1386 35.2 91.0746 35.232C91.0426 35.232 90.9946 35.216 90.9306 35.184V36.288C90.9306 37.888 91.0266 39.328 91.2186 40.608C91.4426 41.856 91.6826 42.96 91.9386 43.92C91.9386 43.984 91.9066 44.016 91.8426 44.016ZM91.6506 26.736C92.6106 25.168 93.5706 23.504 94.5306 21.744C95.4906 19.952 96.2906 18.192 96.9306 16.464C97.5706 14.736 97.8906 13.168 97.8906 11.76C97.8906 10.992 97.7626 10.288 97.5066 9.648C97.2506 9.008 96.8346 8.48 96.2586 8.064C96.2266 8.064 96.1946 8.048 96.1626 8.016C95.2986 10.576 94.4506 13.472 93.6186 16.704C92.7866 19.936 92.1306 23.28 91.6506 26.736Z" fill="black"/>
</g>
<g filter="url(#filter1_d_56_4)">
<path d="M11.5 63C11.5 63 10 49.5 37.5 46.5C65 43.5 92 56 92 56" stroke="black" stroke-width="2"/>
</g>
<g filter="url(#filter2_d_56_4)">
<circle cx="97.5" cy="57.5" r="2.5" fill="black"/>
</g>
<path d="M14.352 45.504C14.16 45.504 13.824 45.424 13.344 45.264C12.864 45.136 12.416 44.944 12 44.688C11.584 44.432 11.344 44.144 11.28 43.824C11.088 42.576 10.992 40.992 10.992 39.072C10.992 37.856 11.024 36.528 11.088 35.088C11.152 33.648 11.248 32.192 11.376 30.72L10.128 30.624C9.808 30.592 9.472 30.384 9.12 30C8.768 29.616 8.48 29.216 8.256 28.8C8.032 28.352 7.92 28.032 7.92 27.84C7.92 27.552 8.112 27.312 8.496 27.12C8.912 26.896 9.424 26.72 10.032 26.592C10.64 26.432 11.216 26.32 11.76 26.256C12.016 23.696 12.304 21.264 12.624 18.96C12.976 16.624 13.28 14.672 13.536 13.104C13.184 13.552 12.848 13.936 12.528 14.256C12.24 14.576 12.048 14.736 11.952 14.736V14.592C12.08 14.304 12.288 13.808 12.576 13.104C12.864 12.4 13.184 11.68 13.536 10.944C13.92 10.176 14.288 9.52 14.64 8.976C14.992 8.432 15.264 8.16 15.456 8.16C15.872 8.16 16.352 8.368 16.896 8.784C17.44 9.168 17.712 9.568 17.712 9.984V10.128C16.944 11.536 16.288 13.232 15.744 15.216C15.232 17.168 14.816 19.264 14.496 21.504C14.176 23.744 13.936 26 13.776 28.272L14.544 28.464C16.592 27.92 18.576 27.136 20.496 26.112C22.448 25.088 24.304 23.936 26.064 22.656C27.824 21.376 29.072 20.176 29.808 19.056C30.576 17.904 30.96 16.832 30.96 15.84C30.96 14.72 30.56 13.68 29.76 12.72C28.96 11.76 27.872 10.912 26.496 10.176C25.152 9.408 23.648 8.752 21.984 8.208C20.32 7.664 18.608 7.232 16.848 6.912C15.12 6.592 13.472 6.384 11.904 6.288C11.712 6.288 11.328 6.288 10.752 6.288C10.176 6.256 9.552 6.24 8.88 6.24C8.208 6.208 7.632 6.16 7.152 6.096C6.672 6 6.432 5.872 6.432 5.712C6.432 5.584 6.608 5.456 6.96 5.328C8.176 4.848 9.296 4.512 10.32 4.32C11.376 4.096 12.368 3.984 13.296 3.984C13.968 3.984 14.944 4.112 16.224 4.368C17.504 4.592 18.912 4.944 20.448 5.424C22.016 5.904 23.584 6.48 25.152 7.152C26.752 7.824 28.224 8.592 29.568 9.456C30.912 10.32 31.984 11.264 32.784 12.288C33.616 13.312 34.032 14.4 34.032 15.552C34.032 16.512 33.616 17.472 32.784 18.432C31.984 19.36 30.88 20.496 29.472 21.84C28.448 22.832 27.216 23.776 25.776 24.672C24.368 25.568 22.88 26.384 21.312 27.12C19.776 27.824 18.272 28.448 16.8 28.992C19.552 29.76 22.128 30.704 24.528 31.824C26.928 32.912 29.28 34.128 31.584 35.472C31.904 35.664 32.064 35.824 32.064 35.952C32.064 36.08 31.984 36.144 31.824 36.144C31.728 36.144 31.648 36.112 31.584 36.048C30.72 35.728 29.456 35.264 27.792 34.656C26.16 34.048 24.416 33.456 22.56 32.88C22.08 32.72 21.36 32.528 20.4 32.304C19.44 32.08 18.368 31.856 17.184 31.632C16 31.376 14.816 31.168 13.632 31.008C13.6 31.584 13.584 32.176 13.584 32.784C13.584 33.36 13.584 33.92 13.584 34.464C13.584 35.52 13.6 36.56 13.632 37.584C13.696 38.576 13.76 39.504 13.824 40.368C13.984 39.888 14.128 39.376 14.256 38.832C14.384 38.288 14.464 38.016 14.496 38.016C14.56 38.016 14.592 38.272 14.592 38.784C14.592 39.2 14.576 39.744 14.544 40.416C14.544 41.088 14.528 41.776 14.496 42.48C14.496 43.184 14.496 43.808 14.496 44.352C14.496 44.608 14.496 44.832 14.496 45.024C14.496 45.248 14.512 45.392 14.544 45.456C14.544 45.488 14.48 45.504 14.352 45.504ZM39.5865 42.144C37.9545 42.144 36.5465 41.744 35.3625 40.944C34.2105 40.112 33.3145 39.04 32.6745 37.728C32.0665 36.416 31.7625 35.056 31.7625 33.648C31.7625 32.496 31.9865 31.2 32.4345 29.76C31.8265 29.76 31.5225 29.536 31.5225 29.088C31.5225 28.736 31.8585 28.432 32.5305 28.176L33.1545 27.936C33.7305 26.688 34.4345 25.536 35.2665 24.48C36.1305 23.392 37.0905 22.512 38.1465 21.84C39.2345 21.168 40.3705 20.832 41.5545 20.832C42.2265 20.832 42.8825 20.944 43.5225 21.168C44.1625 21.392 44.6905 21.664 45.1065 21.984C45.5545 22.272 45.7785 22.544 45.7785 22.8C45.7785 22.896 45.7145 22.944 45.5865 22.944C45.4585 22.944 45.3465 22.912 45.2505 22.848C44.8025 22.656 44.3545 22.528 43.9065 22.464C43.4905 22.368 43.0905 22.32 42.7065 22.32C41.4905 22.32 40.3545 22.736 39.2985 23.568C38.2425 24.4 37.3145 25.456 36.5145 26.736L49.3305 22.224C50.0985 21.968 51.0745 21.744 52.2585 21.552C53.4425 21.36 54.5465 21.264 55.5705 21.264C56.7865 21.264 57.6825 21.424 58.2585 21.744C58.8665 22.064 59.1705 22.4 59.1705 22.752C59.1705 23.072 58.9145 23.232 58.4025 23.232C58.0825 23.232 57.5705 23.136 56.8665 22.944C56.1945 22.72 55.4425 22.608 54.6105 22.608C53.8105 22.608 52.9465 22.672 52.0185 22.8C51.1225 22.896 50.3545 23.024 49.7145 23.184C49.0745 23.344 48.7545 23.488 48.7545 23.616C48.7545 23.712 48.9145 23.76 49.2345 23.76C49.9385 23.792 50.6425 23.904 51.3465 24.096C52.0825 24.288 52.7065 24.64 53.2185 25.152C53.7305 25.632 53.9865 26.352 53.9865 27.312C53.9865 28.24 53.7145 29.344 53.1705 30.624C52.6585 31.904 51.9385 33.216 51.0105 34.56C50.0825 35.872 49.0105 37.104 47.7945 38.256C46.5785 39.408 45.2665 40.352 43.8585 41.088C42.4505 41.792 41.0265 42.144 39.5865 42.144ZM37.8585 40.512C39.0105 40.512 40.1945 40.192 41.4105 39.552C42.6265 38.88 43.7945 38.032 44.9145 37.008C46.0345 35.984 47.0425 34.88 47.9385 33.696C48.8345 32.48 49.5385 31.312 50.0505 30.192C50.5945 29.072 50.8665 28.128 50.8665 27.36C50.8665 26.24 50.5305 25.456 49.8585 25.008C49.2185 24.56 48.5305 24.336 47.7945 24.336C47.1225 24.336 46.2745 24.496 45.2505 24.816C44.2585 25.104 43.1705 25.488 41.9865 25.968C40.8345 26.448 39.6825 26.944 38.5305 27.456C37.3785 27.968 36.3385 28.416 35.4105 28.8C34.9945 29.792 34.6585 30.816 34.4025 31.872C34.1465 32.896 34.0185 33.872 34.0185 34.8C34.0505 35.568 34.1625 36.4 34.3545 37.296C34.5785 38.16 34.9625 38.912 35.5065 39.552C36.0825 40.192 36.8665 40.512 37.8585 40.512ZM59.4551 44.976C59.1351 44.976 58.6871 44.72 58.1111 44.208C57.5671 43.728 57.1831 43.088 56.9591 42.288C56.8311 41.744 56.7351 41.008 56.6711 40.08C56.6071 39.152 56.5751 38.112 56.5751 36.96C56.5751 35.04 56.6071 32.976 56.6711 30.768C56.7671 28.56 56.8151 26.576 56.8151 24.816C56.8151 24.24 56.7991 23.696 56.7671 23.184C56.7671 22.672 56.7511 22.224 56.7191 21.84C56.6551 21.776 56.4631 21.728 56.1431 21.696C55.8551 21.632 55.5671 21.584 55.2791 21.552C55.0231 21.488 54.8951 21.456 54.8951 21.456C54.8951 21.392 55.1351 21.248 55.6151 21.024C56.1271 20.768 56.8471 20.64 57.7751 20.64C58.7351 20.64 59.3591 20.848 59.6471 21.264C59.9671 21.648 60.1271 21.984 60.1271 22.272C60.1271 22.336 60.1271 22.416 60.1271 22.512C60.1271 22.608 60.1111 22.688 60.0791 22.752C59.7271 24.448 59.3911 26.448 59.0711 28.752C58.7511 31.024 58.5911 33.424 58.5911 35.952C58.5911 36.56 58.5911 37.104 58.5911 37.584C58.6231 38.032 58.6391 38.432 58.6391 38.784V39.216C58.8311 37.424 59.1671 35.728 59.6471 34.128C60.1271 32.496 60.6071 30.72 61.0871 28.8C61.4711 27.136 61.7911 25.856 62.0471 24.96C62.3351 24.032 62.6231 23.392 62.9111 23.04C63.2311 22.656 63.5991 22.464 64.0151 22.464C64.5911 22.464 64.9911 22.704 65.2151 23.184C65.4391 23.664 65.5831 24.32 65.6471 25.152C65.7111 25.984 65.7751 26.944 65.8391 28.032C65.9031 29.088 66.0631 30.224 66.3191 31.44C66.7031 33.264 67.1511 34.592 67.6631 35.424C68.1751 36.256 68.6071 36.672 68.9591 36.672C69.3751 36.672 69.7911 36.416 70.2071 35.904C70.6231 35.36 71.0231 34.736 71.4071 34.032C71.7911 33.328 72.1271 32.72 72.4151 32.208C72.7351 31.664 72.9911 31.392 73.1831 31.392C73.2791 31.392 73.3271 31.472 73.3271 31.632C73.3271 31.76 73.2791 31.968 73.1831 32.256C72.3831 34.048 71.7111 35.44 71.1671 36.432C70.6231 37.392 69.8711 37.872 68.9111 37.872C68.1751 37.872 67.4391 37.552 66.7031 36.912C66.3191 36.592 65.9351 36.08 65.5511 35.376C65.1991 34.64 64.8631 33.84 64.5431 32.976C64.2231 32.112 63.9191 31.296 63.6311 30.528C63.3751 29.728 63.1511 29.072 62.9591 28.56C62.7671 28.048 62.6391 27.792 62.5751 27.792C62.5111 27.792 62.3991 27.856 62.2391 27.984C62.1111 28.112 62.0151 28.336 61.9511 28.656C61.4071 30.64 60.9591 32.608 60.6071 34.56C60.2871 36.48 60.0471 38.224 59.8871 39.792C59.7271 41.328 59.6471 42.512 59.6471 43.344C59.6471 43.76 59.6631 44.048 59.6951 44.208C59.7591 44.4 59.7911 44.544 59.7911 44.64C59.7911 44.864 59.6791 44.976 59.4551 44.976ZM82.6598 40.08C82.3078 40.08 81.9238 39.952 81.5078 39.696C81.0918 39.408 80.8038 39.104 80.6438 38.784C80.6438 38.048 80.7398 37.04 80.9318 35.76C81.1238 34.48 81.3318 33.168 81.5558 31.824C81.8118 30.448 82.0358 29.28 82.2278 28.32C81.6518 29.216 80.9958 30.192 80.2598 31.248C79.5238 32.304 78.7718 33.296 78.0038 34.224C77.2358 35.12 76.4518 35.872 75.6518 36.48C74.8838 37.056 74.1638 37.344 73.4918 37.344C72.8198 37.344 72.2918 37.12 71.9078 36.672C71.5238 36.192 71.3318 35.648 71.3318 35.04C71.3318 34.88 71.3638 34.672 71.4277 34.416C71.7158 32.944 72.2758 31.568 73.1078 30.288C73.9718 28.976 74.9478 27.824 76.0358 26.832C77.1558 25.84 78.2598 25.056 79.3478 24.48C80.4358 23.904 81.3638 23.616 82.1318 23.616C82.7078 23.616 83.2518 23.744 83.7638 24C84.3078 24.224 84.8198 24.608 85.2998 25.152C85.3958 25.248 85.4438 25.36 85.4438 25.488C85.4438 25.648 85.3478 25.808 85.1558 25.968C84.9318 26.736 84.6918 27.664 84.4358 28.752C84.2118 29.808 83.9878 30.912 83.7638 32.064C83.5718 33.184 83.4118 34.224 83.2838 35.184C83.1558 36.144 83.0918 36.88 83.0918 37.392C83.0918 37.744 83.1398 37.92 83.2358 37.92C83.4918 37.92 83.8118 37.648 84.1958 37.104C84.6118 36.56 85.0118 35.936 85.3958 35.232C85.7798 34.528 86.1158 33.904 86.4038 33.36C86.7238 32.816 86.9158 32.544 86.9798 32.544C87.0758 32.544 87.1238 32.672 87.1238 32.928C87.1238 33.472 86.9478 34.144 86.5958 34.944C86.2438 35.744 85.8118 36.544 85.2998 37.344C84.8198 38.112 84.3238 38.768 83.8118 39.312C83.3318 39.824 82.9478 40.08 82.6598 40.08ZM73.8758 35.568C74.3238 35.568 74.8838 35.312 75.5558 34.8C76.2598 34.288 76.9798 33.632 77.7158 32.832C78.4838 32.032 79.2198 31.184 79.9238 30.288C80.6598 29.392 81.2838 28.544 81.7958 27.744C82.3398 26.912 82.7238 26.24 82.9478 25.728C82.3078 25.728 81.5718 25.968 80.7398 26.448C79.9078 26.896 79.0598 27.488 78.1958 28.224C77.3318 28.928 76.5318 29.712 75.7958 30.576C75.0598 31.408 74.4678 32.224 74.0198 33.024C73.5718 33.824 73.3478 34.512 73.3478 35.088C73.3478 35.408 73.5238 35.568 73.8758 35.568ZM93.8426 44.016C93.3306 44.016 92.8986 43.696 92.5466 43.056C92.2266 42.448 91.9706 41.664 91.7786 40.704C91.6186 39.712 91.5066 38.656 91.4426 37.536C91.3786 36.384 91.3466 35.28 91.3466 34.224V34.176C90.9946 34.016 90.6586 33.872 90.3386 33.744C90.0186 33.584 89.7146 33.456 89.4266 33.36C89.2346 33.264 89.1386 33.136 89.1386 32.976C89.1386 32.688 89.3146 32.368 89.6666 32.016C90.0506 31.664 90.4506 31.488 90.8666 31.488C90.9626 31.488 91.1066 31.52 91.2986 31.584C91.2986 31.616 91.3306 31.632 91.3946 31.632C91.4586 29.04 91.6346 26.448 91.9226 23.856C92.2106 21.232 92.5306 18.8 92.8826 16.56C93.2666 14.288 93.6186 12.384 93.9386 10.848C94.2906 9.28 94.5626 8.272 94.7546 7.824C94.9786 7.28 95.1546 6.816 95.2826 6.432C95.4426 6.048 95.6826 5.856 96.0026 5.856C96.5146 5.856 97.0106 6.064 97.4906 6.48C98.0026 6.896 98.2586 7.28 98.2586 7.632V7.728C98.4506 7.472 98.7226 7.344 99.0746 7.344C99.5866 7.344 99.9866 7.6 100.275 8.112C100.595 8.624 100.819 9.216 100.947 9.888C101.107 10.528 101.187 11.056 101.187 11.472C101.187 12.72 100.931 14.096 100.419 15.6C99.9066 17.104 99.2506 18.64 98.4506 20.208C97.6506 21.744 96.8026 23.232 95.9066 24.672C95.0106 26.08 94.1786 27.328 93.4106 28.416C93.3466 29.088 93.2826 29.76 93.2186 30.432C93.1546 31.104 93.0906 31.776 93.0266 32.448L93.5546 32.736C94.7386 31.936 95.9546 31.008 97.2026 29.952C98.4506 28.896 99.6346 27.824 100.755 26.736C101.907 25.616 102.883 24.56 103.683 23.568C103.747 23.504 103.811 23.472 103.875 23.472C103.971 23.472 104.019 23.536 104.019 23.664C104.019 23.728 104.003 23.792 103.971 23.856C103.395 24.88 102.627 26 101.667 27.216C100.707 28.4 99.6666 29.584 98.5466 30.768C97.4586 31.92 96.3706 32.944 95.2826 33.84C96.8826 34.928 98.4186 36.112 99.8906 37.392C101.395 38.672 102.787 39.952 104.067 41.232C104.259 41.424 104.355 41.616 104.355 41.808C104.355 42.032 104.291 42.144 104.163 42.144C104.099 42.144 104.067 42.128 104.067 42.096C103.459 41.648 102.595 41.04 101.475 40.272C100.355 39.472 99.1546 38.672 97.8746 37.872C97.4906 37.616 96.8826 37.232 96.0506 36.72C95.2186 36.208 94.3226 35.696 93.3626 35.184H93.2186C93.1866 35.184 93.1386 35.2 93.0746 35.232C93.0426 35.232 92.9946 35.216 92.9306 35.184V36.288C92.9306 37.888 93.0266 39.328 93.2186 40.608C93.4426 41.856 93.6826 42.96 93.9386 43.92C93.9386 43.984 93.9066 44.016 93.8426 44.016ZM93.6506 26.736C94.6106 25.168 95.5706 23.504 96.5306 21.744C97.4906 19.952 98.2906 18.192 98.9306 16.464C99.5706 14.736 99.8906 13.168 99.8906 11.76C99.8906 10.992 99.7626 10.288 99.5066 9.648C99.2506 9.008 98.8346 8.48 98.2586 8.064C98.2266 8.064 98.1946 8.048 98.1626 8.016C97.2986 10.576 96.4506 13.472 95.6186 16.704C94.7866 19.936 94.1306 23.28 93.6506 26.736Z" fill="#00E9F8" fill-opacity="0.4"/>
<path d="M13.5 63C13.5 63 12 49.5 39.5 46.5C67 43.5 94 56 94 56" stroke="#00E9F8" stroke-opacity="0.4" stroke-width="2"/>
<circle cx="99.5" cy="57.5" r="2.5" fill="#00E9F8" fill-opacity="0.4"/>
<defs>
<filter id="filter0_d_56_4" x="0.432007" y="2.98401" width="105.923" height="49.52" filterUnits="userSpaceOnUse" color-interpolation-filters="sRGB">
<feFlood flood-opacity="0" result="BackgroundImageFix"/>
<feColorMatrix in="SourceAlpha" type="matrix" values="0 0 0 0 0 0 0 0 0 0 0 0 0 0 0 0 0 0 127 0" result="hardAlpha"/>
<feOffset dy="3"/>
<feGaussianBlur stdDeviation="2"/>
<feComposite in2="hardAlpha" operator="out"/>
<feColorMatrix type="matrix" values="0 0 0 0 0 0 0 0 0 0 0 0 0 0 0 0 0 0 0.25 0"/>
<feBlend mode="normal" in2="BackgroundImageFix" result="effect1_dropShadow_56_4"/>
<feBlend mode="normal" in="SourceGraphic" in2="effect1_dropShadow_56_4" result="shape"/>
</filter>
<filter id="filter1_d_56_4" x="6.48547" y="44.0351" width="89.9339" height="26.0734" filterUnits="userSpaceOnUse" color-interpolation-filters="sRGB">
<feFlood flood-opacity="0" result="BackgroundImageFix"/>
<feColorMatrix in="SourceAlpha" type="matrix" values="0 0 0 0 0 0 0 0 0 0 0 0 0 0 0 0 0 0 127 0" result="hardAlpha"/>
<feOffset dy="3"/>
<feGaussianBlur stdDeviation="2"/>
<feComposite in2="hardAlpha" operator="out"/>
<feColorMatrix type="matrix" values="0 0 0 0 0 0 0 0 0 0 0 0 0 0 0 0 0 0 0.25 0"/>
<feBlend mode="normal" in2="BackgroundImageFix" result="effect1_dropShadow_56_4"/>
<feBlend mode="normal" in="SourceGraphic" in2="effect1_dropShadow_56_4" result="shape"/>
</filter>
<filter id="filter2_d_56_4" x="91" y="54" width="13" height="13" filterUnits="userSpaceOnUse" color-interpolation-filters="sRGB">
<feFlood flood-opacity="0" result="BackgroundImageFix"/>
<feColorMatrix in="SourceAlpha" type="matrix" values="0 0 0 0 0 0 0 0 0 0 0 0 0 0 0 0 0 0 127 0" result="hardAlpha"/>
<feOffset dy="3"/>
<feGaussianBlur stdDeviation="2"/>
<feComposite in2="hardAlpha" operator="out"/>
<feColorMatrix type="matrix" values="0 0 0 0 0 0 0 0 0 0 0 0 0 0 0 0 0 0 0.25 0"/>
<feBlend mode="normal" in2="BackgroundImageFix" result="effect1_dropShadow_56_4"/>
<feBlend mode="normal" in="SourceGraphic" in2="effect1_dropShadow_56_4" result="shape"/>
</filter>
</defs>
</svg>
